<?xml version="1.0" standalone="no"?><!DOCTYPE svg PUBLIC "-//W3C//DTD SVG 1.1//EN" "http://www.w3.org/Graphics/SVG/1.1/DTD/svg11.dtd"><svg t="1632135090393" class="icon" viewBox="0 0 1024 1024" version="1.1" xmlns="http://www.w3.org/2000/svg" p-id="13172" width="128" height="128" xmlns:xlink="http://www.w3.org/1999/xlink"><defs><style type="text/css"></style></defs><path d="M512 512m-512 0a512 512 0 1 0 1024 0 512 512 0 1 0-1024 0Z" fill="#E0EAFF" p-id="13173"></path><path d="M394.434021 302.877642c-25.718568-26.020379-65.417432-51.146105-117.910905-40.3456-59.284211 12.190989-59.930947 107.875705-50.908969 182.843284a297.692968 297.692968 0 0 1 168.819874-142.497684z" fill="#00ABFF" p-id="13174"></path><path d="M225.614147 456.154274a10.552589 10.552589 0 0 1-1.864758-0.161685 10.778947 10.778947 0 0 1-8.849515-9.334568c-14.012632-116.477305 6.542821-183.802611 59.445894-194.678568 46.133895-9.474695 90.338358 5.475705 127.762864 43.30981a10.778947 10.778947 0 0 1-4.085221 17.752926 288.714105 288.714105 0 0 0-162.762106 137.194443 10.778947 10.778947 0 0 1-9.647158 5.917642z m75.776-185.397895a112.2304 112.2304 0 0 0-22.711242 2.371368c-44.430821 9.140547-49.184337 80.410947-45.433263 138.164548a315.273432 315.273432 0 0 1 141.085642-112.241179 112.542989 112.542989 0 0 0-72.941137-28.380969z" fill="#383C50" p-id="13175"></path><path d="M798.385853 445.375326c9.021979-74.9568 8.342905-170.652295-50.908969-182.843284a169.100126 169.100126 0 0 0-136.353684 34.438737c83.968 24.360421 152.037053 78.686316 187.262653 148.404547z" fill="#00ABFF" p-id="13176"></path><path d="M798.385853 456.154274a10.778947 10.778947 0 0 1-9.614821-5.917642c-34.083032-67.422316-99.920842-119.516968-180.644379-142.907285a10.778947 10.778947 0 0 1-3.470821-18.970947 179.167663 179.167663 0 0 1 144.9984-36.378947c52.903074 10.875958 73.447747 78.201263 59.435115 194.678568a10.778947 10.778947 0 0 1-10.703494 9.496253z m-162.869895-162.589642a315.154863 315.154863 0 0 1 155.216842 117.619873c3.751074-57.742821-1.024-128.959326-45.444042-138.089094a151.983158 151.983158 0 0 0-109.751242 20.469221z" fill="#383C50" p-id="13177"></path><path d="M271.845053 463.882779s-35.710653-140.126316 18.992505-151.433432 77.608421 59.100968 77.608421 59.100969l14.691705 71.960252z" fill="#FFB22F" p-id="13178"></path><path d="M271.845053 474.661726a10.778947 10.778947 0 0 1-10.434021-8.116547c-2.683958-10.541811-25.492211-104.146189 0.30181-145.364884a40.733642 40.733642 0 0 1 26.947369-19.294316c50.596379-10.487916 81.111579 38.804211 90.079663 66.312084a9.4208 9.4208 0 0 1 0.312589 1.185684l14.680926 71.971032a10.778947 10.778947 0 0 1-8.623157 12.762274l-111.335748 20.361431a10.175326 10.175326 0 0 1-1.929431 0.183242z m30.461305-152.619115a46.511158 46.511158 0 0 0-9.302232 0.959326 19.477558 19.477558 0 0 0-13.020968 9.614821c-15.877389 25.373642-6.833853 87.309474 0 118.816337l90.435368-16.545684-12.341894-60.52379c-2.069558-5.949979-19.348211-52.321011-55.770274-52.32101z" fill="#383C50" p-id="13179"></path><path d="M752.144168 463.882779s35.710653-140.126316-18.992505-151.433432-92.343242 34.621979-92.343242 34.621979v96.439242z" fill="#FFB22F" p-id="13180"></path><path d="M752.154947 474.661726a10.358568 10.358568 0 0 1-1.950989-0.183242L638.868211 454.117053a10.778947 10.778947 0 0 1-8.838737-10.606485V347.082105a10.714274 10.714274 0 0 1 2.446821-6.833852c1.703074-2.091116 42.447495-50.747284 102.852716-38.362274a40.7552 40.7552 0 0 1 26.947368 19.294316c25.794021 41.218695 2.985768 134.823074 0.30181 145.364884a10.778947 10.778947 0 0 1-10.423242 8.116547z m-100.567579-40.1408l92.397137 16.912169c6.855411-31.528421 15.877389-93.485811 0-118.827116a19.402105 19.402105 0 0 0-13.010189-9.604042c-40.658189-8.342905-70.785347 19.154189-79.397727 28.208505z" fill="#383C50" p-id="13181"></path><path d="M824.589474 554.027116c0 149.687242-139.953853 210.652968-312.589474 210.652968s-312.589474-60.965726-312.589474-210.652968 139.953853-271.047411 312.589474-271.047411 312.589474 121.349389 312.589474 271.047411z" fill="#FFFFFF" p-id="13182"></path><path d="M512 775.459032c-205.511411 0-323.368421-80.701979-323.368421-221.431916 0-155.400084 145.063074-281.826358 323.368421-281.826358s323.368421 126.426274 323.368421 281.826358c0 140.729937-117.910905 221.431916-323.368421 221.431916z m0-481.700379c-166.426947 0-301.810526 116.757558-301.810526 260.268463 0 180.396463 211.062568 199.874021 301.810526 199.874021s301.810526-19.477558 301.810526-199.874021c0-143.510905-135.394358-260.268463-301.810526-260.268463z" fill="#383C50" p-id="13183"></path><path d="M512 705.234189c-128.571284 0-241.372968-29.318737-305.410695-96.406905 30.5152 109.945263 155.626442 155.8528 305.410695 155.8528S786.863158 718.740211 817.410695 608.827284c-64.037726 67.131284-176.850189 96.406905-305.410695 96.406905z" fill="#21D486" p-id="13184"></path><path d="M512 775.459032c-171.805642 0-286.903242-59.683032-315.823158-163.74299a10.778947 10.778947 0 0 1 18.194863-10.326231c57.279326 60.0064 162.977684 93.054653 297.606737 93.054652s240.370526-33.048253 297.606737-93.054652a10.778947 10.778947 0 0 1 18.194863 10.326231C798.903242 715.776 683.794863 775.459032 512 775.459032zM235.390653 647.534484c43.115789 68.155284 140.773053 106.366653 276.609347 106.366653s233.525895-38.211368 276.609347-106.366653c-79.6672 55.727158-191.250863 68.467874-276.609347 68.467874s-196.952926-12.740716-276.609347-68.467874z" fill="#383C50" p-id="13185"></path><path d="M362.830147 503.872674c4.085221-21.191411 24.080168-34.492632 48.128-34.492632a46.349474 46.349474 0 0 1 47.567495 32.002695" fill="#FFFFFF" p-id="13186"></path><path d="M362.894821 514.6624a11.555032 11.555032 0 0 1-2.058779-0.194021 10.778947 10.778947 0 0 1-8.547705-12.632926c4.990653-25.869474 28.585768-43.2128 58.723705-43.2128a57.128421 57.128421 0 0 1 58.001516 40.076126 10.778947 10.778947 0 1 1-20.868042 5.389474 40.507284 40.507284 0 0 0-74.676548 1.832421 10.778947 10.778947 0 0 1-10.574147 8.741726z" fill="#383C50" p-id="13187"></path><path d="M565.409684 503.872674c4.085221-21.191411 24.080168-34.492632 48.128-34.492632a46.349474 46.349474 0 0 1 47.567495 32.002695" fill="#FFFFFF" p-id="13188"></path><path d="M565.474358 514.6624a11.533474 11.533474 0 0 1-2.058779-0.194021 10.778947 10.778947 0 0 1-8.536926-12.632926c4.979874-25.869474 28.574989-43.2128 58.712926-43.2128a57.128421 57.128421 0 0 1 58.001516 40.065347 10.778947 10.778947 0 1 1-20.868042 5.389474 40.507284 40.507284 0 0 0-74.676548 1.821642 10.778947 10.778947 0 0 1-10.574147 8.763284z" fill="#383C50" p-id="13189"></path><path d="M512 599.525053s0.237137 56.686484 44.398484 28.025263" fill="#FFFFFF" p-id="13190"></path><path d="M534.625011 646.467368a27.960589 27.960589 0 0 1-13.495243-3.363031c-19.218863-10.390905-19.897937-40.173137-19.908715-43.536169a10.778947 10.778947 0 0 1 10.778947-10.778947 10.778947 10.778947 0 0 1 10.778947 10.703495c0.075453 8.138105 2.856421 21.557895 8.623158 24.694568 3.664842 1.929432 10.628042-0.075453 19.132632-5.605052a10.778947 10.778947 0 0 1 11.727495 18.087073 52.0192 52.0192 0 0 1-27.637221 9.798063z" fill="#383C50" p-id="13191"></path><path d="M512 599.525053s-0.237137 56.686484-44.398484 28.025263" fill="#FFFFFF" p-id="13192"></path><path d="M489.353432 646.467368a51.997642 51.997642 0 0 1-27.615664-9.841179 10.778947 10.778947 0 0 1 11.727495-18.087073c8.504589 5.5296 15.467789 7.545263 19.143411 5.605052 5.745179-3.093558 8.536926-16.556463 8.623158-24.694568a10.778947 10.778947 0 0 1 10.778947-10.692716h0.075453a10.778947 10.778947 0 0 1 10.703494 10.778948c0 3.363032-0.700632 33.145263-19.908715 43.536168a28.025263 28.025263 0 0 1-13.527579 3.395368z" fill="#383C50" p-id="13193"></path><path d="M494.710568 589.047916c0-9.582484 7.739284-10.994526 17.246316-10.994527s17.246316 1.412042 17.246316 10.994527a17.720589 17.720589 0 0 1-34.578863 0z" fill="#383C50" p-id="13194"></path><path d="M512 613.667032a26.548547 26.548547 0 0 1-28.079158-24.629895c0-9.927411 4.882863-21.751916 28.079158-21.751916s28.025263 11.856842 28.025263 21.751916a26.537768 26.537768 0 0 1-28.025263 24.629895z m-6.467368-24.360421a8.8064 8.8064 0 0 0 12.934736 0 45.012884 45.012884 0 0 0-12.934736 0z" fill="#383C50" p-id="13195"></path></svg>